999
Peca-modelo ficticia: chapa de suporte 200 x 100 mm, 4 furos de 10 mm e 1 rasgo oblongo de 50 x 10 mm. Unidades: mm
0
SECTION
2
HEADER
9
$ACADVER
1
AC1009
9
$INSUNITS
70
4
9
$EXTMIN
10
0.0
20
0.0
30
0.0
9
$EXTMAX
10
200.0
20
100.0
30
0.0
0
ENDSEC
0
SECTION
2
TABLES
0
TABLE
2
LTYPE
70
1
0
LTYPE
2
CONTINUOUS
70
0
3
Solid line
72
65
73
0
40
0.0
0
ENDTAB
0
TABLE
2
LAYER
70
1
0
LAYER
2
0
70
0
62
7
6
CONTINUOUS
0
ENDTAB
0
ENDSEC
0
SECTION
2
ENTITIES
0
LINE
8
0
10
0.0
20
0.0
30
0.0
11
200.0
21
0.0
31
0.0
0
LINE
8
0
10
200.0
20
0.0
30
0.0
11
200.0
21
100.0
31
0.0
0
LINE
8
0
10
200.0
20
100.0
30
0.0
11
0.0
21
100.0
31
0.0
0
LINE
8
0
10
0.0
20
100.0
30
0.0
11
0.0
21
0.0
31
0.0
0
CIRCLE
8
0
10
15.0
20
15.0
30
0.0
40
5.0
0
CIRCLE
8
0
10
185.0
20
15.0
30
0.0
40
5.0
0
CIRCLE
8
0
10
15.0
20
85.0
30
0.0
40
5.0
0
CIRCLE
8
0
10
185.0
20
85.0
30
0.0
40
5.0
0
LINE
8
0
10
80.0
20
45.0
30
0.0
11
120.0
21
45.0
31
0.0
0
ARC
8
0
10
120.0
20
50.0
30
0.0
40
5.0
50
270.0
51
90.0
0
LINE
8
0
10
120.0
20
55.0
30
0.0
11
80.0
21
55.0
31
0.0
0
ARC
8
0
10
80.0
20
50.0
30
0.0
40
5.0
50
90.0
51
270.0
0
ENDSEC
0
EOF
